HIERARCHY
ROOT Hips
{
	OFFSET 0.000000 0.000000 0.000000
	CHANNELS 6 Xposition Yposition Zposition Zrotation Yrotation Xrotation 
	JOINT LHipJoint
	{
		OFFSET 0.000000 0.000000 0.000000
		CHANNELS 3 Zrotation Yrotation Xrotation
		JOINT LeftUpLeg
		{
			OFFSET 1.363060 -1.794630 0.839290
			CHANNELS 3 Zrotation Yrotation Xrotation
			JOINT LeftLeg
			{
				OFFSET 2.448110 -6.726130 0.000000
				CHANNELS 3 Zrotation Yrotation Xrotation
				JOINT LeftFoot
				{
					OFFSET 2.562200 -7.039590 0.000000
					CHANNELS 3 Zrotation Yrotation Xrotation
					JOINT LeftToeBase
					{
						OFFSET 0.157640 -0.433110 2.322550
						CHANNELS 3 Zrotation Yrotation Xrotation
						End Site
						{
							OFFSET 0.000000 0.000000 0.000000
						}
					}
				}
			}
		}
	}
	JOINT RHipJoint
	{
		OFFSET 0.000000 0.000000 0.000000
		CHANNELS 3 Zrotation Yrotation Xrotation
		JOINT RightUpLeg
		{
			OFFSET -1.305520 -1.794630 0.839290
			CHANNELS 3 Zrotation Yrotation Xrotation
			JOINT RightLeg
			{
				OFFSET -2.542530 -6.985550 0.000000
				CHANNELS 3 Zrotation Yrotation Xrotation
				JOINT RightFoot
				{
					OFFSET -2.568260 -7.056230 0.000000
					CHANNELS 3 Zrotation Yrotation Xrotation
					JOINT RightToeBase
					{
						OFFSET -0.164730 -0.452590 2.363150
						CHANNELS 3 Zrotation Yrotation Xrotation
						End Site
						{
							OFFSET 0.000000 0.000000 0.000000
						}
					}
				}
			}
		}
	}
	JOINT LowerBack
	{
		OFFSET 0.000000 0.000000 0.000000
		CHANNELS 3 Zrotation Yrotation Xrotation
		JOINT Spine
		{
			OFFSET 0.028270 2.035590 -0.193380
			CHANNELS 3 Zrotation Yrotation Xrotation
			JOINT Spine1
			{
				OFFSET 0.056720 2.048850 -0.042750
				CHANNELS 3 Zrotation Yrotation Xrotation
				JOINT Neck
				{
					OFFSET 0.000000 0.000000 0.000000
					CHANNELS 3 Zrotation Yrotation Xrotation
					JOINT Neck1
					{
						OFFSET -0.054170 1.746240 0.172020
						CHANNELS 3 Zrotation Yrotation Xrotation
						JOINT Head
						{
							OFFSET 0.104070 1.761360 -0.123970
							CHANNELS 3 Zrotation Yrotation Xrotation
							End Site
							{
								OFFSET 0.000000 0.000000 0.000000
							}
						}
					}
				}
				JOINT LeftShoulder
				{
					OFFSET 0.000000 0.000000 0.000000
					CHANNELS 3 Zrotation Yrotation Xrotation
					JOINT LeftArm
					{
						OFFSET 3.362410 1.200890 -0.311210
						CHANNELS 3 Zrotation Yrotation Xrotation
						JOINT LeftForeArm
						{
							OFFSET 4.983000 -0.000000 -0.000000
							CHANNELS 3 Zrotation Yrotation Xrotation
							JOINT LeftHand
							{
								OFFSET 3.483560 -0.000000 -0.000000
								CHANNELS 3 Zrotation Yrotation Xrotation
								JOINT LeftFingerBase
								{
									OFFSET 0.000000 0.000000 0.000000
									CHANNELS 3 Zrotation Yrotation Xrotation
									JOINT LeftHandIndex1
									{
										OFFSET 0.715260 -0.000000 -0.000000
										CHANNELS 3 Zrotation Yrotation Xrotation
										End Site
										{
											OFFSET 0.000000 0.000000 0.000000
										}
									}
								}
								JOINT LThumb
								{
									OFFSET 0.000000 0.000000 0.000000
									CHANNELS 3 Zrotation Yrotation Xrotation
									End Site
									{
										OFFSET 0.000000 0.000000 0.000000
									}
								}
							}
						}
					}
				}
				JOINT RightShoulder
				{
					OFFSET 0.000000 0.000000 0.000000
					CHANNELS 3 Zrotation Yrotation Xrotation
					JOINT RightArm
					{
						OFFSET -3.136600 1.374050 -0.404650
						CHANNELS 3 Zrotation Yrotation Xrotation
						JOINT RightForeArm
						{
							OFFSET -5.241900 -0.000000 -0.000000
							CHANNELS 3 Zrotation Yrotation Xrotation
							JOINT RightHand
							{
								OFFSET -3.444170 -0.000000 -0.000000
								CHANNELS 3 Zrotation Yrotation Xrotation
								JOINT RightFingerBase
								{
									OFFSET 0.000000 0.000000 0.000000
									CHANNELS 3 Zrotation Yrotation Xrotation
									JOINT RightHandIndex1
									{
										OFFSET -0.622530 -0.000000 -0.000000
										CHANNELS 3 Zrotation Yrotation Xrotation
										End Site
										{
											OFFSET 0.000000 0.000000 0.000000
										}
									}
								}
								JOINT RThumb
								{
									OFFSET 0.000000 0.000000 0.000000
									CHANNELS 3 Zrotation Yrotation Xrotation
									End Site
									{
										OFFSET 0.000000 0.000000 0.000000
									}
								}
							}
						}
					}
				}
			}
		}
	}
}
MOTION
Frames: 9
Frame Time: 0.008333
9.363153 17.761994 -16.059633 -4.778590 -1.906102 25.200821 9.059237 2.153302 -1.348073 -31.147335 -16.537625 -43.891750 5.625868 18.525676 51.742046 0.908356 2.212181 23.100694 3.194300 11.003100 32.290400 -11.416298 -2.769886 0.193413 8.342352 35.846088 -47.092085 -3.194300 -17.781394 43.248491 0.644688 -12.684801 7.105554 -0.254600 3.246700 -8.966400 6.489657 -2.930213 29.235331 2.121679 -1.463575 0.072146 -0.148928 -0.520473 -7.244072 -2.797781 6.197961 -17.529437 1.162135 8.681050 -4.378827 -0.586700 4.083000 -1.598100 3.183748 -13.777610 2.827205 -92.611580 -27.288554 42.686232 100.082856 -54.459507 -72.111022 0.788224 -1.011139 64.498777 -43.120479 39.322075 -31.069500 -7.125000 0.000000 0.000000 -77.460900 52.705900 -27.199200 -2.351899 14.090712 5.042941 71.904679 34.617966 41.465191 -109.234017 49.201934 -78.824770 -0.205615 -0.598633 16.588158 19.623562 -2.738640 -0.737800 7.125000 0.000000 0.000000 34.790900 -30.236600 15.228700 
9.273389 17.741187 -15.896445 -5.013781 -0.448382 25.481570 9.327443 2.126572 -1.390953 -29.919095 -17.036653 -46.561185 6.784610 19.569526 55.304674 1.104047 2.591331 25.009073 2.686400 10.169200 29.526500 -11.478628 -2.789602 0.219138 9.576867 35.878960 -46.212481 -3.211435 -17.694297 43.261723 0.641155 -13.837199 8.744419 -0.418300 4.151400 -11.503000 6.857297 -2.806616 28.367545 2.152437 -1.298010 0.046491 -0.256929 -0.445794 -6.903573 -2.938435 5.923888 -17.449931 1.671184 8.310212 -3.852604 -0.306500 3.948900 -1.417600 3.193056 -13.761705 2.805705 -92.716615 -27.517976 43.240622 99.478152 -54.467741 -71.574728 0.776868 -1.017474 64.283276 -43.400086 39.410493 -31.374100 -7.125000 0.000000 0.000000 -77.763800 52.695900 -27.435500 -2.380304 14.059965 5.008809 71.244974 34.477896 41.104960 -108.515563 49.283836 -78.103354 -0.199291 -0.584886 16.732357 19.608067 -2.697074 -0.727900 7.125000 0.000000 0.000000 34.770000 -30.216200 15.236900 
9.189943 17.718311 -15.721274 -5.615869 1.050485 25.418021 9.543927 2.105695 -1.419548 -28.407908 -17.248463 -48.922925 7.954025 20.462623 58.827607 1.189146 0.894009 26.055322 1.579600 7.929200 22.499100 -11.521490 -2.816137 0.272859 12.184979 35.216960 -44.586512 -3.274366 -17.602209 43.516772 0.694098 -14.717988 9.546536 -1.109000 6.690600 -18.801900 7.441582 -2.734807 27.942263 2.230775 -1.082397 -0.037763 -0.293283 -0.351892 -6.958816 -3.143662 5.690557 -17.176560 2.223749 7.984655 -3.271745 0.010100 3.842400 -1.228400 3.200783 -13.777223 2.763884 -92.948097 -27.383087 43.608050 98.935081 -54.482386 -71.104206 0.777240 -1.020828 64.626619 -43.395268 38.956077 -31.115500 -7.125000 0.000000 0.000000 -77.167900 52.493700 -26.444000 -2.403397 14.056018 4.954232 70.887998 33.839265 40.881507 -108.195440 49.349434 -77.768762 -0.188971 -0.582972 17.028708 19.935773 -2.116421 -0.531400 7.125000 0.000000 0.000000 34.768000 -29.679000 15.807000 
9.103774 17.699029 -15.550678 -6.415820 2.749449 25.209290 9.720860 2.089267 -1.446437 -26.825071 -17.349442 -51.136507 9.000520 21.214145 61.918065 1.051638 -0.145387 25.357332 0.801500 5.714100 15.957200 -11.549430 -2.842587 0.320766 15.115397 34.398819 -42.746194 -3.249965 -17.426019 43.524143 1.034872 -16.668929 8.326373 -1.602500 7.983700 -22.664500 8.048964 -2.795046 27.649155 2.370373 -1.003117 -0.094717 -0.155979 -0.325323 -6.947175 -3.206269 5.495949 -17.242948 2.662552 7.716247 -2.663841 0.245800 3.745600 -0.931600 3.225061 -13.777047 2.732217 -92.986903 -27.363760 43.697662 98.755763 -54.481699 -70.944308 0.771169 -1.014972 65.273797 -44.144851 38.368811 -31.420200 -7.125000 0.000000 0.000000 -76.814400 52.077900 -25.140000 -2.399854 14.061932 4.912781 70.770329 33.500049 40.902467 -107.872362 49.407709 -77.467729 -0.175040 -0.574882 17.418666 19.328882 -1.297847 -0.231800 7.125000 0.000000 0.000000 34.115700 -29.039200 16.036100 
9.015970 17.684213 -15.398166 -7.183090 4.591219 24.970557 9.875572 2.073319 -1.475975 -25.345148 -17.594178 -53.184243 9.813520 21.829980 64.233823 0.776632 1.426992 23.043438 0.435300 4.233600 11.734800 -11.552267 -2.869464 0.354969 17.487417 33.813636 -41.067483 -3.102323 -17.131024 43.068559 1.316842 -18.145217 7.292472 -1.759000 8.345000 -23.767000 8.760567 -2.876940 27.343829 2.472430 -0.944382 -0.134446 -0.216082 -0.307514 -6.923679 -3.044584 5.205517 -17.119942 2.950534 7.287888 -2.312366 0.352600 3.549900 -0.787300 3.245737 -13.758374 2.715806 -92.883511 -27.293957 44.011012 98.748181 -54.485134 -70.947272 0.770857 -1.012642 65.820332 -44.223610 38.107057 -31.326400 -7.125000 0.000000 0.000000 -76.500900 51.938000 -24.540600 -2.392339 14.063776 4.889334 70.939736 33.337175 40.822978 -107.537786 49.470797 -77.150479 -0.166713 -0.560740 17.935298 18.449983 -0.870733 -0.084700 7.125000 0.000000 0.000000 33.431700 -28.768600 15.845000 
8.945488 17.685521 -15.244238 -7.498312 6.256463 24.344424 9.944145 2.069578 -1.473159 -24.530099 -18.044677 -54.232667 10.234190 22.157155 65.432347 0.491617 3.044125 20.482392 0.177700 2.715400 7.487300 -11.468000 -2.899835 0.353816 19.312585 32.964697 -38.936782 -2.913485 -16.691348 42.306518 1.308664 -18.163612 7.994478 -1.671700 8.145800 -23.157800 9.138874 -2.927167 27.521384 2.510735 -0.886730 -0.140357 -0.298982 -0.284808 -7.030165 -3.005988 4.821412 -17.038356 3.186155 6.753334 -2.153379 0.460700 3.301400 -0.716900 3.243460 -13.764676 2.699942 -93.090041 -27.089472 44.686799 98.711930 -54.511237 -70.936664 0.772592 -1.018218 66.351723 -43.738627 38.150805 -30.926000 -7.125000 0.000000 0.000000 -76.273700 52.046600 -24.625200 -2.392543 14.081741 4.870093 71.189212 32.912546 40.487917 -107.698186 49.489846 -77.310069 -0.166156 -0.560717 18.335724 18.208122 -0.684743 -0.022800 7.125000 0.000000 0.000000 33.218900 -28.629200 15.839200 
8.887860 17.700445 -15.088893 -7.536179 7.750188 23.366995 9.947517 2.073153 -1.447304 -24.131436 -18.614761 -54.483121 10.249495 22.222839 65.518366 0.313337 3.445280 18.645834 0.134300 2.361900 6.507000 -11.323882 -2.952468 0.328985 21.119138 31.538658 -36.511979 -2.813580 -16.259505 41.772294 1.143783 -17.276438 9.530220 -1.930600 8.720000 -24.923500 9.279805 -2.997673 28.260888 2.505575 -0.853177 -0.124295 -0.370169 -0.270758 -7.303284 -3.135818 4.421621 -17.115959 3.425188 6.227835 -2.047573 0.615700 3.063600 -0.626500 3.220732 -13.795314 2.688407 -93.330374 -26.809070 45.480002 98.927327 -54.544654 -71.150051 0.770317 -1.026771 66.832541 -43.194516 38.637443 -30.732000 -7.125000 0.000000 0.000000 -76.583300 52.372800 -25.667800 -2.399661 14.119793 4.848786 71.480183 32.282246 40.087660 -108.253178 49.466890 -77.877445 -0.164578 -0.567996 18.512892 17.801244 -0.343896 0.088800 7.125000 0.000000 0.000000 32.852000 -28.362100 15.851100 
8.837422 17.739553 -14.940739 -7.794113 9.120929 22.392923 9.927129 2.061154 -1.438906 -23.512979 -19.097375 -54.493189 9.838018 22.097824 64.410947 0.186761 3.404554 16.972876 0.541700 4.715500 13.098900 -11.198457 -3.016522 0.317301 22.940539 30.198033 -34.441993 -2.792339 -15.939233 41.567897 1.053906 -16.466087 10.256480 -2.325800 9.514000 -27.416700 9.580172 -3.006440 29.115768 2.513752 -0.672215 -0.120088 -0.469700 -0.189768 -7.670487 -3.309662 3.982474 -17.153695 3.569437 5.656218 -1.971456 0.733200 2.798700 -0.547000 3.208067 -13.834871 2.685632 -93.358006 -26.617493 46.338739 99.161242 -54.558923 -71.388379 0.778399 -1.038776 66.971805 -41.943744 39.228121 -29.992500 -7.125000 0.000000 0.000000 -76.607300 52.887600 -26.906100 -2.397644 14.165298 4.817873 71.633229 31.392250 39.638519 -109.098215 49.413806 -78.748298 -0.163526 -0.573043 18.407964 16.755848 -0.148890 0.142200 7.125000 0.000000 0.000000 32.128900 -28.280500 15.440800 
8.785786 17.733998 -14.787464 -8.126350 10.336648 21.711184 9.925896 2.021190 -1.455375 -22.808689 -19.726188 -54.647251 9.127452 21.846982 62.504412 0.096706 2.313569 14.938115 1.014200 6.407300 17.970800 -11.146070 -3.057006 0.319524 24.291062 29.404480 -33.301601 -2.927812 -15.911009 42.038420 1.134714 -16.259609 9.496968 -2.289900 9.445400 -27.198700 9.936409 -2.921752 29.568677 2.519134 -0.405427 -0.101094 -0.621054 -0.062175 -7.872514 -3.409323 3.586274 -16.895624 3.552885 5.123513 -2.094009 0.742000 2.539500 -0.641500 3.207616 -13.857695 2.697784 -93.287783 -26.537404 47.243615 99.133958 -54.566968 -71.391345 0.781907 -1.051404 66.955562 -40.822128 39.788821 -29.351800 -7.125000 0.000000 0.000000 -76.657500 53.371700 -28.060300 -2.390270 14.189219 4.792902 71.810394 30.328571 39.124235 -110.243138 49.329586 -79.880537 -0.165880 -0.588021 18.094396 16.439252 -0.061889 0.169300 7.125000 0.000000 0.000000 31.896800 -28.216900 15.345400 
